<svg id="graduation-cap-svgrepo-com" xmlns="http://www.w3.org/2000/svg" width="18.67" height="11.501" viewBox="0 0 18.67 11.501">
  <g id="Group_3112" data-name="Group 3112">
    <g id="Group_3111" data-name="Group 3111" transform="translate(0 0)">
      <path id="Path_599" data-name="Path 599" d="M16.961,54.88l-.01-1.787,1.719-.962-9.36-4.936L0,52.23l3.732,2.143.007,1.273v.1l.034-.016a.276.276,0,0,0-.064.163c0,.626,2.531,1.122,5.651,1.1S15,56.459,15,55.834a.3.3,0,0,0-.068-.163l.034.016v-.1l-.007-1.278L16.581,53.3l.009,1.582a.493.493,0,0,0-.3.456.489.489,0,0,0,.977-.005A.494.494,0,0,0,16.961,54.88Zm-7.6,1.689c-2.768.016-5.014-.289-5.016-.677s2.24-.714,5.009-.728,5.014.287,5.015.674S12.129,56.554,9.36,56.569Zm5.475-3.3c-.375-.394-1.718-1.434-5.5-1.413S4.221,52.93,3.85,53.33l0-.377S4.922,51.318,9.332,51.3s5.5,1.6,5.5,1.6Zm1.551,2.659L16.195,58.7c.59-.927,1.083-.582,1.083-.582l-.012-2.19C16.632,56.173,16.386,55.929,16.386,55.929Z" transform="translate(0 -47.195)" fill="#fff"/>
    </g>
  </g>
</svg>
