<svg id="student-with-graduation-cap" xmlns="http://www.w3.org/2000/svg" width="12.027" height="14.343" viewBox="0 0 12.027 14.343">
  <g id="Layer_2_9_">
    <g id="Group_3105" data-name="Group 3105" transform="translate(0)">
      <path id="Path_597" data-name="Path 597" d="M86.288,2.481c.138.078,1.07.528,1.521.745,0,.175.006.477.012.482.05.433.135.913.159,1.049-.041.023-.251.16-.251.588v.007c0,.011,0,.023,0,.034.091,1.189.564.677.661,1.2A2.589,2.589,0,0,0,89.8,8.294a1.988,1.988,0,0,0,1.717,0,2.589,2.589,0,0,0,1.407-1.709c.1-.521.571-.008.661-1.2,0-.012,0-.023,0-.034V5.346c0-.428-.21-.566-.251-.588.025-.136.11-.616.159-1.049.006-.005.01-.307.012-.482.247-.119.64-.309.966-.468v1.15a.3.3,0,0,0-.03.5s-.131.738-.174.954.748.173.713,0-.174-.954-.174-.954a.3.3,0,0,0-.03-.5v-1.3c.122-.06.212-.106.248-.127.1-.055.151-.126.14-.2.013-.076-.042-.159-.19-.231C93.912,1.533,91.214.213,90.948.086a.545.545,0,0,0-.587,0c-.267.127-2.964,1.447-4.022,1.965-.148.073-.2.155-.19.231C86.137,2.355,86.19,2.426,86.288,2.481Z" transform="translate(-84.641)" fill="#fff"/>
      <path id="Path_598" data-name="Path 598" d="M47.057,295.429a13.267,13.267,0,0,1-1.513-.777.26.26,0,0,0-.366.114c-.41.687-1.171,2.685-1.7,2.722h-.02c-.531-.037-1.292-2.035-1.7-2.722a.26.26,0,0,0-.366-.114,13.266,13.266,0,0,1-1.513.777c-1.671.6-2.422,1.217-2.422,1.636v2.786H49.479v-2.786C49.479,296.646,48.728,296.032,47.057,295.429Z" transform="translate(-37.452 -285.508)" fill="#fff"/>
    </g>
  </g>
</svg>
