<svg id="graduated" xmlns="http://www.w3.org/2000/svg" width="30" height="37.904" viewBox="0 0 30 37.904">
  <path id="Path_583" data-name="Path 583" d="M79.329,24.763,77.1,24.11l-4.84-3.161v-.724A6.442,6.442,0,0,0,74.807,15.7a1.479,1.479,0,0,0,1.241-1.458V12.25c0-.008,0-.015,0-.023V9.7a1.1,1.1,0,0,0,.458-.893V6.5l3.34-.569a1.184,1.184,0,0,0,.16-2.3L68.745.056a1.178,1.178,0,0,0-.718,0L56.767,3.637A1.188,1.188,0,0,0,56.4,5.7v3.02H56.37a1.151,1.151,0,0,0-1.15,1.15v1.5l-.742,4.357A1.236,1.236,0,0,0,55.7,17.173H58.21a1.236,1.236,0,0,0,1.218-1.443l-.742-4.357v-1.5a1.151,1.151,0,0,0-1.15-1.15h-.027V6.032l2.761.47V8.811a1.1,1.1,0,0,0,.456.892v4.54A1.479,1.479,0,0,0,61.967,15.7a6.442,6.442,0,0,0,2.54,4.523v.728l-4.839,3.161-2.223.652a5.646,5.646,0,0,0-4.058,5.42v1.655a.555.555,0,1,0,1.11,0V30.184a4.563,4.563,0,0,1,3.26-4.355l2.071-.608L68.1,30.138a.562.562,0,0,0,.567,0l8.275-4.917,2.071.608a4.563,4.563,0,0,1,3.26,4.355v5.363a1.249,1.249,0,0,1-1.247,1.247H78.582V34.4a.555.555,0,0,0-1.11,0v2.393H59.3V34.4a.555.555,0,0,0-1.11,0v2.393H55.745A1.249,1.249,0,0,1,54.5,35.546V34.434a.555.555,0,1,0-1.11,0v1.112A2.36,2.36,0,0,0,55.745,37.9H81.029a2.36,2.36,0,0,0,2.358-2.358V30.184a5.646,5.646,0,0,0-4.058-5.42Zm-21.119-8.7H55.7a.125.125,0,0,1-.124-.146l.671-3.941h1.418l.671,3.941A.125.125,0,0,1,58.21,16.063Zm-.634-6.189v.991H56.331V9.874a.04.04,0,0,1,.04-.04h1.165A.039.039,0,0,1,57.575,9.874ZM66.4,27.626l.221.34L60.954,24.6l3.6-2.35A11.663,11.663,0,0,0,66.4,27.626Zm0-2.4a14.277,14.277,0,0,0,3.979,0,10.6,10.6,0,0,1-.935,1.791l-1.055,1.622-1.055-1.622A10.605,10.605,0,0,1,66.4,25.23Zm3.975,2.4a11.662,11.662,0,0,0,1.849-5.379l3.6,2.35-5.668,3.368ZM73.62,9.911h1.316V11.7h-.653a.664.664,0,0,1-.663-.663V9.911ZM57.1,4.7l11.26-3.582a.073.073,0,0,1,.045,0L79.668,4.7a.062.062,0,0,1,.051.075c0,.058-.037.063-.061.067l-3.723.634-1.4-.173A.555.555,0,0,0,74.4,6.4l.993.123V8.8H61.38V6.524l5.745-.711a10.285,10.285,0,0,1,2.522,0l2.175.269a.555.555,0,0,0,.136-1.1l-2.175-.269a11.39,11.39,0,0,0-2.794,0l-6.152.761-3.724-.634c-.024,0-.057-.01-.061-.067A.062.062,0,0,1,57.1,4.7Zm4.733,7V9.911h1.318v1.121a.664.664,0,0,1-.663.663h-.655Zm1.222,3.72a.86.86,0,0,0-.855-.806.367.367,0,0,1-.366-.366V12.806h.654a1.775,1.775,0,0,0,1.773-1.773V9.911H72.51v1.121a1.775,1.775,0,0,0,1.773,1.773h.654v1.437a.367.367,0,0,1-.366.366.86.86,0,0,0-.855.806,5.34,5.34,0,0,1-10.658,0Zm5.329,6.11a6.409,6.409,0,0,0,2.767-.627v.352a10.582,10.582,0,0,1-.375,2.789,13.111,13.111,0,0,1-4.785,0,10.581,10.581,0,0,1-.375-2.789c0-.012,0-.023,0-.035s0,0,0-.007V20.9A6.409,6.409,0,0,0,68.387,21.525Z" transform="translate(-53.387 0)" fill="#2f2f75"/>
</svg>
