<svg id="dollar-symbol" xmlns="http://www.w3.org/2000/svg" width="25.996" height="38.65" viewBox="0 0 25.996 38.65">
  <path id="dollar-symbol-2" data-name="dollar-symbol" d="M39.266,43.339h-4.1a.57.57,0,0,1-.57-.57V40.251a18.933,18.933,0,0,1-10.308-4.9.57.57,0,0,1-.057-.778l3.242-4.008A.57.57,0,0,1,28.3,30.5a14.933,14.933,0,0,0,6.295,3.57V26.458c-5.586-1.512-9.276-3.7-9.276-9.176,0-5.024,3.706-8.9,9.276-9.772V5.259a.57.57,0,0,1,.57-.57h4.1a.57.57,0,0,1,.57.57V7.545a17.377,17.377,0,0,1,9.259,4.261.57.57,0,0,1,.086.771L46.119,16.72a.57.57,0,0,1-.831.093,14.508,14.508,0,0,0-5.451-3.076v7.28C45.226,22.284,50.1,24.37,50.1,30.476c0,5.544-3.918,9.314-10.266,9.936v2.357a.57.57,0,0,1-.57.57ZM35.739,42.2H38.7V39.885a.57.57,0,0,1,.531-.569c6-.414,9.735-3.8,9.735-8.842,0-5.168-3.926-7.116-9.822-8.45a.571.571,0,0,1-.444-.556V13a.57.57,0,0,1,.693-.557,14.923,14.923,0,0,1,6.173,3.108l2.383-3.226a16.14,16.14,0,0,0-8.739-3.711.57.57,0,0,1-.51-.567V5.829H35.739V8.006a.57.57,0,0,1-.5.566c-5.248.64-8.775,4.14-8.775,8.71,0,4.9,3.386,6.762,8.849,8.184a.57.57,0,0,1,.427.552V34.8a.57.57,0,0,1-.689.558,15.868,15.868,0,0,1-7.063-3.608L25.461,34.87a17.835,17.835,0,0,0,9.775,4.315.57.57,0,0,1,.5.566Zm3.528-6.56a.57.57,0,0,1-.57-.57V27.053a.57.57,0,0,1,.732-.547c3.2.945,5.046,1.988,5.046,4.509,0,2.438-2.018,4.251-5.141,4.619A.586.586,0,0,1,39.266,35.639Zm.57-7.813V34.4c2.174-.434,3.5-1.694,3.5-3.386C43.334,29.509,42.465,28.686,39.836,27.826Zm-4.668-6.867a.564.564,0,0,1-.189-.033C32.91,20.2,31,19.194,31,16.787c0-2.057,1.622-3.835,4.037-4.427a.57.57,0,0,1,.706.554v7.475a.571.571,0,0,1-.57.57Zm-.57-7.268a3.493,3.493,0,0,0-2.462,3.1c0,1.262.66,2.035,2.462,2.776Z" transform="translate(-24.106 -4.689)" fill="#2f2f75"/>
</svg>
