<svg id="save-money" xmlns="http://www.w3.org/2000/svg" width="40.979" height="35.809" viewBox="0 0 40.979 35.809">
  <path id="Path_584" data-name="Path 584" d="M32.242,49.941H22.351a.585.585,0,1,1,0-1.171h9.891a1.529,1.529,0,0,0,1.088-.446c.026-.026.049-.052.07-.076a.559.559,0,0,1,.038-.052,1.522,1.522,0,0,0,.351-.976,1.551,1.551,0,0,0-1.549-1.549H26.713a.585.585,0,0,1-.433-.192,7.874,7.874,0,0,0-5.817-2.572h-7.1a.585.585,0,0,1,0-1.171h7.105a9.049,9.049,0,0,1,6.5,2.763h5.272a2.723,2.723,0,0,1,2.72,2.718,2.693,2.693,0,0,1-.581,1.673.54.54,0,0,1-.05.068c-.059.066-.109.125-.169.186a2.7,2.7,0,0,1-1.92.8Z" transform="translate(-6.466 -21.058)" fill="#2f2f75"/>
  <path id="Path_585" data-name="Path 585" d="M27.274,59.363a12.412,12.412,0,0,1-4.231-.741L13.16,55.034a.586.586,0,0,1,.4-1.1l9.885,3.589a11.329,11.329,0,0,0,8.965-.556l13.411-6.85a5.431,5.431,0,0,0-5.228-.867l-6.432,2.342a.572.572,0,0,1-.273.069.585.585,0,0,1-.4-1.016.573.573,0,0,1,.2-.126l6.506-2.369a6.6,6.6,0,0,1,6.5,1.171l.553.479a.585.585,0,0,1-.117.964L32.939,58.009A12.5,12.5,0,0,1,27.274,59.363Z" transform="translate(-6.467 -23.555)" fill="#2f2f75"/>
  <path id="Path_586" data-name="Path 586" d="M8.891,53.158H2.585A.585.585,0,0,1,2,52.573V39.825a.585.585,0,0,1,.585-.585H8.891a.585.585,0,0,1,.585.585V52.573A.585.585,0,0,1,8.891,53.158Zm-5.72-1.171H8.305V40.411H3.171Z" transform="translate(-2 -20.022)" fill="#2f2f75"/>
  <path id="Path_587" data-name="Path 587" d="M39.107,27.294a10.44,10.44,0,1,1,10.44-10.44A10.44,10.44,0,0,1,39.107,27.294Zm0-19.71a9.269,9.269,0,1,0,9.269,9.269,9.269,9.269,0,0,0-9.269-9.269Z" transform="translate(-13.055 -6.414)" fill="#2f2f75"/>
  <path id="Path_588" data-name="Path 588" d="M44.3,20.7a3.211,3.211,0,1,1,3.311-3.209.585.585,0,1,1-1.171,0A2.143,2.143,0,1,0,44.3,19.53a.585.585,0,1,1,0,1.171Z" transform="translate(-18.246 -9.676)" fill="#2f2f75"/>
  <path id="Path_589" data-name="Path 589" d="M44.155,29.663a3.265,3.265,0,0,1-3.311-3.209.585.585,0,1,1,1.171,0,2.143,2.143,0,1,0,2.14-2.037.585.585,0,0,1,0-1.171,3.211,3.211,0,1,1,0,6.418Z" transform="translate(-18.103 -13.391)" fill="#2f2f75"/>
  <path id="Path_590" data-name="Path 590" d="M46.085,26.234a.585.585,0,0,1-.585-.585V13.185a.585.585,0,0,1,1.171,0V25.649A.585.585,0,0,1,46.085,26.234Z" transform="translate(-20.034 -8.979)" fill="#2f2f75"/>
</svg>
